<svg width="1600" height="1100" viewBox="0 0 1600 1100" fill="none" xmlns="http://www.w3.org/2000/svg">
  <defs>
    <linearGradient id="bg" x1="84" y1="88" x2="1504" y2="1022" gradientUnits="userSpaceOnUse">
      <stop stop-color="#FBFAF5"/>
      <stop offset="1" stop-color="#F5F0E5"/>
    </linearGradient>
    <linearGradient id="panel" x1="330" y1="176" x2="1268" y2="902" gradientUnits="userSpaceOnUse">
      <stop stop-color="#FFFFFF"/>
      <stop offset="1" stop-color="#FAF7F1"/>
    </linearGradient>
    <filter id="shadow" x="188" y="122" width="1224" height="888" filterUnits="userSpaceOnUse" color-interpolation-filters="sRGB">
      <feFlood flood-opacity="0" result="BackgroundImageFix"/>
      <feColorMatrix in="SourceAlpha" type="matrix" values="0 0 0 0 0 0 0 0 0 0 0 0 0 0 0 0 0 0 127 0" result="hardAlpha"/>
      <feOffset dy="30"/>
      <feGaussianBlur stdDeviation="44"/>
      <feColorMatrix type="matrix" values="0 0 0 0 0.192157 0 0 0 0 0.133333 0 0 0 0 0.054902 0 0 0 0.12 0"/>
      <feBlend mode="normal" in2="BackgroundImageFix" result="effect1_dropShadow"/>
      <feBlend mode="normal" in="SourceGraphic" in2="effect1_dropShadow" result="shape"/>
    </filter>
    <style>
      .ui { font-family: Arial, Helvetica, sans-serif; }
      .title { fill: #1B2432; font-size: 28px; font-weight: 700; }
      .label { fill: #8B927D; font-size: 14px; font-weight: 600; }
      .body { fill: #657081; font-size: 16px; font-weight: 500; }
      .small { fill: #7D8898; font-size: 13px; font-weight: 500; }
      .metric { fill: #111827; font-size: 22px; font-weight: 700; }
    </style>
  </defs>

  <rect width="1600" height="1100" rx="88" fill="url(#bg)"/>
  <circle cx="1340" cy="206" r="158" fill="#F59E0B" fill-opacity="0.12"/>
  <circle cx="260" cy="214" r="176" fill="#14B86A" fill-opacity="0.1"/>

  <g filter="url(#shadow)" class="ui">
    <rect x="274" y="168" width="1052" height="724" rx="42" fill="url(#panel)"/>
    <text x="332" y="226" class="title">Order Processing Workflow</text>
    <rect x="574" y="192" width="78" height="28" rx="14" fill="#EAF7EC"/>
    <text x="595" y="211" fill="#16C27A" font-size="14" font-weight="700">Active</text>
    <circle cx="1240" cy="210" r="16" fill="#F5F0E6"/>
    <circle cx="1240" cy="210" r="3" fill="#726A5D"/>
    <circle cx="1230" cy="210" r="3" fill="#726A5D"/>
    <circle cx="1250" cy="210" r="3" fill="#726A5D"/>

    <rect x="426" y="286" width="218" height="78" rx="20" fill="#FFFFFF"/>
    <rect x="426" y="438" width="218" height="78" rx="20" fill="#FFFFFF"/>
    <rect x="312" y="610" width="218" height="78" rx="20" fill="#FFFFFF"/>
    <rect x="540" y="610" width="218" height="78" rx="20" fill="#FFFFFF"/>
    <rect x="426" y="776" width="218" height="78" rx="20" fill="#FFFFFF"/>
    <rect x="426" y="906" width="218" height="78" rx="20" fill="#FFFFFF"/>

    <path d="M535 364V438" stroke="#7B8798" stroke-width="8" stroke-linecap="round"/>
    <path d="M535 516V610" stroke="#7B8798" stroke-width="8" stroke-linecap="round"/>
    <path d="M535 516H421" stroke="#7B8798" stroke-width="8" stroke-linecap="round"/>
    <path d="M535 516H649" stroke="#7B8798" stroke-width="8" stroke-linecap="round"/>
    <path d="M421 688H649" stroke="#7B8798" stroke-width="8" stroke-linecap="round"/>
    <path d="M535 688V776" stroke="#7B8798" stroke-width="8" stroke-linecap="round"/>
    <path d="M535 854V906" stroke="#7B8798" stroke-width="8" stroke-linecap="round"/>

    <circle cx="372" cy="325" r="18" fill="#EAF2FF"/>
    <path d="M361 321H383" stroke="#0F5EF7" stroke-width="4" stroke-linecap="round"/>
    <path d="M366 331H378" stroke="#0F5EF7" stroke-width="4" stroke-linecap="round"/>
    <text x="404" y="332" class="title" font-size="18">New Order Received</text>

    <circle cx="372" cy="477" r="18" fill="#EEF9F4"/>
    <path d="M363 478L370 485L382 469" stroke="#16C27A" stroke-width="4" stroke-linecap="round" stroke-linejoin="round"/>
    <text x="404" y="484" class="title" font-size="18">Validate Order</text>

    <circle cx="258" cy="649" r="18" fill="#EEF1FF"/>
    <path d="M248 643H268V655H248V643Z" stroke="#5B63D6" stroke-width="4"/>
    <text x="290" y="656" class="title" font-size="18">Payment Processing</text>

    <circle cx="486" cy="649" r="18" fill="#FFF3E5"/>
    <path d="M476 640L495 648L486 656L467 648L476 640Z" stroke="#C67A1E" stroke-width="4" stroke-linejoin="round"/>
    <text x="518" y="656" class="title" font-size="18">Inventory Check</text>

    <circle cx="372" cy="815" r="18" fill="#EEF9F4"/>
    <path d="M362 815H382" stroke="#16C27A" stroke-width="4" stroke-linecap="round"/>
    <text x="404" y="822" class="title" font-size="18">Order Confirmation</text>

    <circle cx="372" cy="945" r="18" fill="#F0F4FA"/>
    <ellipse cx="372" cy="938" rx="10" ry="4" stroke="#6B7280" stroke-width="4"/>
    <path d="M362 938V952C362 956 367 960 372 960C377 960 382 956 382 952V938" stroke="#6B7280" stroke-width="4"/>
    <text x="404" y="952" class="title" font-size="18">Update Inventory</text>

    <rect x="816" y="296" width="406" height="514" rx="28" fill="#FFFFFF"/>
    <text x="856" y="344" class="title" font-size="22">Workflow Details</text>
    <text x="856" y="392" class="label">Trigger</text>
    <text x="856" y="420" class="body">New order is placed</text>
    <text x="856" y="474" class="label">Actions</text>
    <g class="body">
      <text x="856" y="510">• Validate order details</text>
      <text x="856" y="544">• Process payment</text>
      <text x="856" y="578">• Check inventory</text>
      <text x="856" y="612">• Send confirmation</text>
      <text x="856" y="646">• Update inventory</text>
    </g>
    <text x="856" y="714" class="label">Statistics</text>
    <text x="856" y="752" class="body">Total Executions</text>
    <text x="1130" y="752" class="metric">1,245</text>
    <text x="856" y="792" class="body">Success Rate</text>
    <text x="1130" y="792" fill="#16C27A" font-size="22" font-weight="700">98.7%</text>
    <text x="856" y="832" class="body">Time Saved</text>
    <text x="1130" y="832" fill="#16C27A" font-size="22" font-weight="700">125 hrs</text>
  </g>
</svg>
