<svg width="1600" height="1100" viewBox="0 0 1600 1100" fill="none" xmlns="http://www.w3.org/2000/svg">
  <defs>
    <linearGradient id="bg" x1="90" y1="74" x2="1512" y2="1028" gradientUnits="userSpaceOnUse">
      <stop stop-color="#FAF9FF"/>
      <stop offset="1" stop-color="#F0ECFF"/>
    </linearGradient>
    <linearGradient id="panel" x1="330" y1="166" x2="1274" y2="906" gradientUnits="userSpaceOnUse">
      <stop stop-color="#FFFFFF"/>
      <stop offset="1" stop-color="#FAF8FF"/>
    </linearGradient>
    <filter id="shadow" x="188" y="118" width="1226" height="896" filterUnits="userSpaceOnUse" color-interpolation-filters="sRGB">
      <feFlood flood-opacity="0" result="BackgroundImageFix"/>
      <feColorMatrix in="SourceAlpha" type="matrix" values="0 0 0 0 0 0 0 0 0 0 0 0 0 0 0 0 0 0 127 0" result="hardAlpha"/>
      <feOffset dy="30"/>
      <feGaussianBlur stdDeviation="44"/>
      <feColorMatrix type="matrix" values="0 0 0 0 0.133333 0 0 0 0 0.0941176 0 0 0 0 0.372549 0 0 0 0.14 0"/>
      <feBlend mode="normal" in2="BackgroundImageFix" result="effect1_dropShadow"/>
      <feBlend mode="normal" in="SourceGraphic" in2="effect1_dropShadow" result="shape"/>
    </filter>
    <style>
      .ui { font-family: Arial, Helvetica, sans-serif; }
      .title { fill: #172033; font-size: 28px; font-weight: 700; }
      .label { fill: #8B93A8; font-size: 14px; font-weight: 600; }
      .body { fill: #69748A; font-size: 16px; font-weight: 500; }
      .metric { fill: #111827; font-size: 24px; font-weight: 700; }
      .small { fill: #8B93A8; font-size: 13px; font-weight: 500; }
    </style>
  </defs>

  <rect width="1600" height="1100" rx="88" fill="url(#bg)"/>
  <circle cx="1326" cy="216" r="168" fill="#7C5CFF" fill-opacity="0.12"/>
  <circle cx="258" cy="210" r="182" fill="#0F5EF7" fill-opacity="0.08"/>

  <g filter="url(#shadow)" class="ui">
    <rect x="274" y="170" width="1054" height="724" rx="42" fill="url(#panel)"/>
    <text x="330" y="228" class="title">Executive Dashboard</text>

    <rect x="1068" y="194" width="160" height="34" rx="12" fill="#F6F3FF"/>
    <text x="1092" y="216" class="small">May 1 - May 31, 2024</text>
    <rect x="1244" y="194" width="56" height="34" rx="12" fill="#FFFFFF"/>
    <text x="1260" y="216" class="small">Export</text>

    <rect x="330" y="266" width="226" height="110" rx="24" fill="#FFFFFF"/>
    <rect x="574" y="266" width="226" height="110" rx="24" fill="#FFFFFF"/>
    <rect x="818" y="266" width="226" height="110" rx="24" fill="#FFFFFF"/>
    <rect x="1062" y="266" width="226" height="110" rx="24" fill="#FFFFFF"/>
    <text x="360" y="302" class="label">Total Revenue</text>
    <text x="360" y="346" class="metric">$4.32M</text>
    <text x="480" y="346" fill="#16C27A" font-size="15" font-weight="700">+12.5%</text>
    <text x="604" y="302" class="label">Total Profit</text>
    <text x="604" y="346" class="metric">$1.24M</text>
    <text x="720" y="346" fill="#16C27A" font-size="15" font-weight="700">+15.3%</text>
    <text x="848" y="302" class="label">Total Customers</text>
    <text x="848" y="346" class="metric">2,847</text>
    <text x="974" y="346" fill="#16C27A" font-size="15" font-weight="700">+8.7%</text>
    <text x="1092" y="302" class="label">Growth Rate</text>
    <text x="1092" y="346" class="metric">23.8%</text>
    <text x="1204" y="346" fill="#16C27A" font-size="15" font-weight="700">+5.2%</text>

    <rect x="330" y="400" width="530" height="266" rx="28" fill="#FFFFFF"/>
    <rect x="884" y="400" width="404" height="266" rx="28" fill="#FFFFFF"/>
    <rect x="330" y="690" width="430" height="172" rx="28" fill="#FFFFFF"/>
    <rect x="784" y="690" width="504" height="172" rx="28" fill="#FFFFFF"/>

    <text x="360" y="438" class="title" font-size="20">Revenue Trend</text>
    <path d="M376 622H820" stroke="#E1E6F6" stroke-width="8" stroke-linecap="round"/>
    <g fill="#8375FF">
      <rect x="408" y="550" width="22" height="72" rx="8"/>
      <rect x="444" y="520" width="22" height="102" rx="8"/>
      <rect x="480" y="566" width="22" height="56" rx="8"/>
      <rect x="516" y="496" width="22" height="126" rx="8"/>
      <rect x="552" y="538" width="22" height="84" rx="8"/>
      <rect x="588" y="482" width="22" height="140" rx="8"/>
      <rect x="624" y="524" width="22" height="98" rx="8"/>
      <rect x="660" y="468" width="22" height="154" rx="8"/>
      <rect x="696" y="506" width="22" height="116" rx="8"/>
      <rect x="732" y="452" width="22" height="170" rx="8"/>
      <rect x="768" y="478" width="22" height="144" rx="8"/>
    </g>
    <g class="small">
      <text x="404" y="648">May 1</text>
      <text x="512" y="648">May 8</text>
      <text x="620" y="648">May 15</text>
      <text x="728" y="648">May 22</text>
    </g>

    <text x="914" y="438" class="title" font-size="20">Business Overview</text>
    <circle cx="1050" cy="538" r="74" stroke="#E4E7FB" stroke-width="28"/>
    <circle cx="1050" cy="538" r="74" stroke="#7C5CFF" stroke-width="28" stroke-linecap="round" stroke-dasharray="310 180" transform="rotate(-80 1050 538)"/>
    <text x="1013" y="548" class="metric" font-size="30">23.8%</text>
    <circle cx="1168" cy="486" r="7" fill="#7C5CFF"/>
    <circle cx="1168" cy="524" r="7" fill="#AFA5FF"/>
    <circle cx="1168" cy="562" r="7" fill="#4A7BFF"/>
    <text x="1188" y="491" class="small">Revenue</text>
    <text x="1188" y="529" class="small">Cost</text>
    <text x="1188" y="567" class="small">Profit</text>

    <text x="360" y="728" class="title" font-size="20">Top Performing Products</text>
    <g class="body">
      <text x="360" y="774">Product A</text>
      <text x="360" y="814">Product B</text>
      <text x="360" y="854">Product C</text>
    </g>
    <path d="M452 768H624" stroke="#7C5CFF" stroke-width="8" stroke-linecap="round"/>
    <path d="M452 808H596" stroke="#8C8EFF" stroke-width="8" stroke-linecap="round"/>
    <path d="M452 848H560" stroke="#B4AEFF" stroke-width="8" stroke-linecap="round"/>
    <text x="640" y="774" fill="#16C27A" font-size="14" font-weight="700">+15.2%</text>
    <text x="612" y="814" fill="#16C27A" font-size="14" font-weight="700">+10.1%</text>
    <text x="576" y="854" fill="#16C27A" font-size="14" font-weight="700">+8.3%</text>

    <text x="814" y="728" class="title" font-size="20">Geographic Performance</text>
    <path d="M848 824C892 788 934 770 976 770C1012 770 1058 782 1108 808C1162 836 1206 846 1244 842" stroke="#B7ABFF" stroke-width="18" stroke-linecap="round"/>
    <path d="M878 788C904 756 946 742 998 744C1050 746 1090 766 1126 804" stroke="#8E7BFF" stroke-width="18" stroke-linecap="round"/>
    <path d="M960 724C994 704 1038 700 1088 712C1138 724 1182 752 1220 790" stroke="#D2CCFF" stroke-width="18" stroke-linecap="round"/>
    <path d="M850 846H1216" stroke="#E6E2FF" stroke-width="10" stroke-linecap="round"/>
    <text x="846" y="872" class="small">Low</text>
    <text x="1200" y="872" class="small">High</text>
  </g>
</svg>
